<svg width="110" height="92" viewBox="0 0 110 92" fill="none" xmlns="http://www.w3.org/2000/svg">
<path d="M9.86875 49.625V61H7.525V49.625H9.86875ZM16.5719 49.625L12.2125 56.3047H9.34531L9.04844 54.2188H10.9625L13.7281 49.625H16.5719ZM14.1578 61L10.9703 55.9141L12.5953 54.2422L16.9391 61H14.1578ZM17.4622 56.8594V56.6953C17.4622 56.0755 17.5507 55.5052 17.7278 54.9844C17.9049 54.4583 18.1627 54.0026 18.5013 53.6172C18.8398 53.2318 19.2565 52.9323 19.7513 52.7188C20.246 52.5 20.8138 52.3906 21.4544 52.3906C22.095 52.3906 22.6653 52.5 23.1653 52.7188C23.6653 52.9323 24.0846 53.2318 24.4231 53.6172C24.7669 54.0026 25.0273 54.4583 25.2044 54.9844C25.3815 55.5052 25.47 56.0755 25.47 56.6953V56.8594C25.47 57.474 25.3815 58.0443 25.2044 58.5703C25.0273 59.0911 24.7669 59.5469 24.4231 59.9375C24.0846 60.3229 23.6679 60.6224 23.1731 60.8359C22.6783 61.0495 22.1106 61.1562 21.47 61.1562C20.8294 61.1562 20.2591 61.0495 19.7591 60.8359C19.2643 60.6224 18.845 60.3229 18.5013 59.9375C18.1627 59.5469 17.9049 59.0911 17.7278 58.5703C17.5507 58.0443 17.4622 57.474 17.4622 56.8594ZM19.7122 56.6953V56.8594C19.7122 57.2135 19.7434 57.5443 19.8059 57.8516C19.8684 58.1589 19.9674 58.4297 20.1028 58.6641C20.2434 58.8932 20.4257 59.0729 20.6497 59.2031C20.8736 59.3333 21.1471 59.3984 21.47 59.3984C21.7825 59.3984 22.0507 59.3333 22.2747 59.2031C22.4986 59.0729 22.6783 58.8932 22.8138 58.6641C22.9492 58.4297 23.0481 58.1589 23.1106 57.8516C23.1783 57.5443 23.2122 57.2135 23.2122 56.8594V56.6953C23.2122 56.3516 23.1783 56.0286 23.1106 55.7266C23.0481 55.4193 22.9466 55.1484 22.8059 54.9141C22.6705 54.6745 22.4908 54.487 22.2669 54.3516C22.0429 54.2161 21.7721 54.1484 21.4544 54.1484C21.1367 54.1484 20.8658 54.2161 20.6419 54.3516C20.4231 54.487 20.2434 54.6745 20.1028 54.9141C19.9674 55.1484 19.8684 55.4193 19.8059 55.7266C19.7434 56.0286 19.7122 56.3516 19.7122 56.6953ZM32.7353 52.5469V54.3125H28.5791V52.5469H32.7353ZM34.3838 52.5469V61H32.1338V52.5469H34.3838ZM28.0166 52.5469H30.2275L30.0009 56.8125C29.9697 57.4219 29.9046 57.9583 29.8056 58.4219C29.7067 58.8854 29.5739 59.2812 29.4072 59.6094C29.2457 59.9375 29.0504 60.2057 28.8213 60.4141C28.5973 60.6172 28.3343 60.7656 28.0322 60.8594C27.7353 60.9531 27.4072 61 27.0478 61H26.3603L26.3369 59.2266L26.6259 59.1953C26.7926 59.1797 26.9384 59.1328 27.0634 59.0547C27.1936 58.9714 27.303 58.8542 27.3916 58.7031C27.4853 58.5469 27.5634 58.3516 27.6259 58.1172C27.6884 57.8776 27.7379 57.5964 27.7744 57.2734C27.816 56.9505 27.8447 56.5781 27.8603 56.1562L28.0166 52.5469ZM40.8834 55.2344V57H36.4694V55.2344H40.8834ZM47.2894 57.4688H44.6409L44.6253 55.9922H46.8128C47.1045 55.9922 47.3415 55.9635 47.5238 55.9062C47.706 55.8438 47.8389 55.7526 47.9222 55.6328C48.0107 55.5078 48.055 55.3568 48.055 55.1797C48.055 55.0234 48.0264 54.8906 47.9691 54.7812C47.917 54.6667 47.8363 54.5729 47.7269 54.5C47.6175 54.4271 47.4795 54.375 47.3128 54.3438C47.1514 54.3073 46.9613 54.2891 46.7425 54.2891H45.4769V61H43.2269V52.5469H46.7425C47.2946 52.5469 47.7894 52.5964 48.2269 52.6953C48.6644 52.7891 49.0368 52.9323 49.3441 53.125C49.6566 53.3177 49.8935 53.5625 50.055 53.8594C50.2217 54.151 50.305 54.4974 50.305 54.8984C50.305 55.1589 50.2451 55.4036 50.1253 55.6328C50.0107 55.862 49.8389 56.0651 49.6097 56.2422C49.3805 56.4193 49.0967 56.5651 48.7581 56.6797C48.4248 56.7891 48.0394 56.8568 47.6019 56.8828L47.2894 57.4688ZM47.2894 61H44.0863L44.8597 59.2578H47.2894C47.5654 59.2578 47.792 59.224 47.9691 59.1562C48.1461 59.0885 48.2764 58.9896 48.3597 58.8594C48.4482 58.724 48.4925 58.5625 48.4925 58.375C48.4925 58.1927 48.4534 58.0339 48.3753 57.8984C48.2972 57.763 48.1696 57.6589 47.9925 57.5859C47.8206 57.5078 47.5863 57.4688 47.2894 57.4688H45.1878L45.2034 55.9922H47.5941L48.1409 56.5859C48.7347 56.6224 49.2243 56.7344 49.6097 56.9219C49.9951 57.1094 50.279 57.349 50.4613 57.6406C50.6488 57.9271 50.7425 58.2422 50.7425 58.5859C50.7425 58.987 50.667 59.3385 50.5159 59.6406C50.3649 59.9427 50.1409 60.1953 49.8441 60.3984C49.5524 60.5964 49.193 60.7474 48.7659 60.8516C48.3389 60.9505 47.8467 61 47.2894 61ZM52.0859 56.8594V56.6953C52.0859 56.0755 52.1745 55.5052 52.3516 54.9844C52.5286 54.4583 52.7865 54.0026 53.125 53.6172C53.4635 53.2318 53.8802 52.9323 54.375 52.7188C54.8698 52.5 55.4375 52.3906 56.0781 52.3906C56.7188 52.3906 57.2891 52.5 57.7891 52.7188C58.2891 52.9323 58.7083 53.2318 59.0469 53.6172C59.3906 54.0026 59.651 54.4583 59.8281 54.9844C60.0052 55.5052 60.0938 56.0755 60.0938 56.6953V56.8594C60.0938 57.474 60.0052 58.0443 59.8281 58.5703C59.651 59.0911 59.3906 59.5469 59.0469 59.9375C58.7083 60.3229 58.2917 60.6224 57.7969 60.8359C57.3021 61.0495 56.7344 61.1562 56.0938 61.1562C55.4531 61.1562 54.8828 61.0495 54.3828 60.8359C53.888 60.6224 53.4688 60.3229 53.125 59.9375C52.7865 59.5469 52.5286 59.0911 52.3516 58.5703C52.1745 58.0443 52.0859 57.474 52.0859 56.8594ZM54.3359 56.6953V56.8594C54.3359 57.2135 54.3672 57.5443 54.4297 57.8516C54.4922 58.1589 54.5911 58.4297 54.7266 58.6641C54.8672 58.8932 55.0495 59.0729 55.2734 59.2031C55.4974 59.3333 55.7708 59.3984 56.0938 59.3984C56.4062 59.3984 56.6745 59.3333 56.8984 59.2031C57.1224 59.0729 57.3021 58.8932 57.4375 58.6641C57.5729 58.4297 57.6719 58.1589 57.7344 57.8516C57.8021 57.5443 57.8359 57.2135 57.8359 56.8594V56.6953C57.8359 56.3516 57.8021 56.0286 57.7344 55.7266C57.6719 55.4193 57.5703 55.1484 57.4297 54.9141C57.2943 54.6745 57.1146 54.487 56.8906 54.3516C56.6667 54.2161 56.3958 54.1484 56.0781 54.1484C55.7604 54.1484 55.4896 54.2161 55.2656 54.3516C55.0469 54.487 54.8672 54.6745 54.7266 54.9141C54.5911 55.1484 54.4922 55.4193 54.4297 55.7266C54.3672 56.0286 54.3359 56.3516 54.3359 56.6953ZM71.2416 58.4141L73.4603 52.5469H75.2962L71.9994 61H70.4837L67.2025 52.5469H69.0384L71.2416 58.4141ZM68.4994 52.5469V61H66.2494V52.5469H68.4994ZM74.0384 61V52.5469H76.2884V61H74.0384ZM82.4678 61.1562C81.8116 61.1562 81.223 61.0521 80.7022 60.8438C80.1814 60.6302 79.7386 60.3359 79.3741 59.9609C79.0147 59.5859 78.7386 59.151 78.5459 58.6562C78.3532 58.1562 78.2569 57.625 78.2569 57.0625V56.75C78.2569 56.1094 78.348 55.5234 78.5303 54.9922C78.7126 54.4609 78.973 54 79.3116 53.6094C79.6553 53.2188 80.072 52.9193 80.5616 52.7109C81.0511 52.4974 81.6032 52.3906 82.2178 52.3906C82.8168 52.3906 83.348 52.4896 83.8116 52.6875C84.2751 52.8854 84.6631 53.1667 84.9756 53.5312C85.2933 53.8958 85.5329 54.3333 85.6944 54.8438C85.8558 55.349 85.9366 55.9115 85.9366 56.5312V57.4688H79.2178V55.9688H83.7256V55.7969C83.7256 55.4844 83.6683 55.2057 83.5537 54.9609C83.4444 54.7109 83.2777 54.513 83.0537 54.3672C82.8298 54.2214 82.5433 54.1484 82.1944 54.1484C81.8975 54.1484 81.6423 54.2135 81.4287 54.3438C81.2152 54.474 81.0407 54.6562 80.9053 54.8906C80.7751 55.125 80.6761 55.401 80.6084 55.7188C80.5459 56.0312 80.5147 56.375 80.5147 56.75V57.0625C80.5147 57.401 80.5616 57.7135 80.6553 58C80.7543 58.2865 80.8923 58.5339 81.0694 58.7422C81.2517 58.9505 81.4704 59.112 81.7256 59.2266C81.986 59.3411 82.2803 59.3984 82.6084 59.3984C83.0147 59.3984 83.3923 59.3203 83.7412 59.1641C84.0954 59.0026 84.4001 58.7604 84.6553 58.4375L85.7491 59.625C85.572 59.8802 85.3298 60.125 85.0225 60.3594C84.7204 60.5938 84.3558 60.7865 83.9287 60.9375C83.5017 61.0833 83.0147 61.1562 82.4678 61.1562ZM91.03 59.3984C91.306 59.3984 91.5508 59.3464 91.7644 59.2422C91.9779 59.1328 92.1446 58.9818 92.2644 58.7891C92.3894 58.5911 92.4545 58.3594 92.4597 58.0938H94.5769C94.5717 58.6875 94.4128 59.2161 94.1003 59.6797C93.7878 60.138 93.3685 60.5 92.8425 60.7656C92.3165 61.026 91.7279 61.1562 91.0769 61.1562C90.4206 61.1562 89.8477 61.0469 89.3581 60.8281C88.8737 60.6094 88.4701 60.3073 88.1472 59.9219C87.8243 59.5312 87.5821 59.0781 87.4206 58.5625C87.2592 58.0417 87.1784 57.4844 87.1784 56.8906V56.6641C87.1784 56.0651 87.2592 55.5078 87.4206 54.9922C87.5821 54.4714 87.8243 54.0182 88.1472 53.6328C88.4701 53.2422 88.8737 52.9375 89.3581 52.7188C89.8425 52.5 90.4102 52.3906 91.0612 52.3906C91.754 52.3906 92.3607 52.5234 92.8816 52.7891C93.4076 53.0547 93.8191 53.4349 94.1159 53.9297C94.418 54.4193 94.5717 55 94.5769 55.6719H92.4597C92.4545 55.3906 92.3946 55.1354 92.28 54.9062C92.1706 54.6771 92.0092 54.4948 91.7956 54.3594C91.5873 54.2188 91.3295 54.1484 91.0222 54.1484C90.6941 54.1484 90.4258 54.2188 90.2175 54.3594C90.0092 54.4948 89.8477 54.6823 89.7331 54.9219C89.6185 55.1562 89.5378 55.4245 89.4909 55.7266C89.4493 56.0234 89.4284 56.3359 89.4284 56.6641V56.8906C89.4284 57.2188 89.4493 57.5339 89.4909 57.8359C89.5326 58.138 89.6107 58.4062 89.7253 58.6406C89.8451 58.875 90.0092 59.0599 90.2175 59.1953C90.4258 59.3307 90.6967 59.3984 91.03 59.3984ZM100.506 52.5469V61H98.2484V52.5469H100.506ZM103.225 52.5469V54.2891H95.5687V52.5469H103.225ZM58.8984 80.8125V82H51.4531V80.9609L55.1797 76.8125C55.638 76.3021 55.9922 75.8698 56.2422 75.5156C56.4974 75.1562 56.6745 74.8359 56.7734 74.5547C56.8776 74.2682 56.9297 73.9766 56.9297 73.6797C56.9297 73.3047 56.8516 72.9661 56.6953 72.6641C56.5443 72.3568 56.3203 72.112 56.0234 71.9297C55.7266 71.7474 55.3672 71.6562 54.9453 71.6562C54.4401 71.6562 54.0182 71.7552 53.6797 71.9531C53.3464 72.1458 53.0964 72.4167 52.9297 72.7656C52.763 73.1146 52.6797 73.5156 52.6797 73.9688H51.2344C51.2344 73.3281 51.375 72.7422 51.6562 72.2109C51.9375 71.6797 52.3542 71.2578 52.9062 70.9453C53.4583 70.6276 54.138 70.4688 54.9453 70.4688C55.6641 70.4688 56.2786 70.5964 56.7891 70.8516C57.2995 71.1016 57.6901 71.4557 57.9609 71.9141C58.237 72.3672 58.375 72.8984 58.375 73.5078C58.375 73.8411 58.3177 74.1797 58.2031 74.5234C58.0938 74.862 57.9401 75.2005 57.7422 75.5391C57.5495 75.8776 57.3229 76.2109 57.0625 76.5391C56.8073 76.8672 56.5339 77.1901 56.2422 77.5078L53.1953 80.8125H58.8984Z" fill="#030305"/>
<path d="M70.7326 23.6242C68.7733 22.8309 66.7183 22.1858 64.6139 21.6923C64.3043 17.9273 62.7212 14.5385 60.2713 12.4987L65.1799 7.67935C65.2993 7.56208 65.359 7.44487 65.359 7.26903C65.359 7.09318 65.2993 6.97591 65.1799 6.8587L63.5081 5.21734C63.2693 4.98286 62.911 4.98286 62.6722 5.21734L57.4798 10.3338C57.4377 10.177 57.4181 10.0127 57.4181 9.84838V8.85182C58.851 8.03111 59.8063 6.50702 59.8063 4.80702C59.8063 4.78736 59.805 4.76797 59.8047 4.74838C59.805 4.72879 59.8063 4.7094 59.8063 4.68974C59.8063 2.11032 57.6569 0 55.0298 0C52.4027 0 50.2533 2.11032 50.2533 4.68968C50.2533 4.70933 50.2546 4.72872 50.2549 4.74831C50.2546 4.7679 50.2533 4.78729 50.2533 4.80695C50.2533 6.44831 51.2086 8.03111 52.6415 8.85175V9.84831C52.6415 10.4931 52.2236 11.138 51.5668 11.4311C48.2088 13.0796 45.8616 17.0431 45.5046 21.6113C43.3082 22.1288 41.2142 22.8333 39.2673 23.6829C39.0882 23.7415 38.9091 23.9173 38.9091 24.1518C38.9091 24.3863 38.9688 24.5621 39.1479 24.6794L41.5361 26.2621C41.7152 26.3794 41.8944 26.3794 42.0735 26.3208C43.2459 25.9371 44.3799 25.601 45.4851 25.3121C45.5643 28.6109 46.211 31.5691 47.3276 33.707C47.447 33.8829 47.6261 34.0001 47.8649 34.0001H50.8503C51.0294 34.0001 51.3279 33.8829 51.3876 33.707C51.4474 33.5312 51.5071 33.2967 51.3876 33.1208C50.6712 31.7725 50.3129 29.838 50.2532 27.4345C53.3579 26.8483 56.7612 26.8483 59.8062 27.4345C59.7465 29.838 59.3883 31.7725 58.6718 33.1208C58.5524 33.2966 58.5524 33.5311 58.6718 33.707C58.7913 33.8829 59.0301 34.0001 59.2092 34.0001H62.1945C62.4333 34.0001 62.6124 33.8829 62.6722 33.707C63.7911 31.5647 64.4383 28.5987 64.5152 25.2915C65.6397 25.5851 66.7932 25.928 67.986 26.3208C68.0457 26.3795 68.1054 26.3795 68.1651 26.3795C68.2845 26.3795 68.4039 26.3208 68.4636 26.2036L70.8518 24.6209C71.0309 24.5036 71.0907 24.3278 71.0907 24.0933C71.0908 23.9173 70.9117 23.6827 70.7326 23.6242ZM63.329 21.3966C60.8806 20.8957 58.3887 20.6096 55.9276 20.5367C54.6676 20.4933 53.4121 20.5038 52.1702 20.5697L59.4481 13.4242C61.5975 15.1827 63.0305 18.1138 63.329 21.3966ZM53.4873 7.86177C53.4841 7.85958 53.4808 7.85725 53.4775 7.85513C53.4115 7.82425 53.3471 7.79125 53.2838 7.75685C52.2917 7.20873 51.588 6.21091 51.4663 5.0496C51.466 5.04707 51.4659 5.04455 51.4656 5.04203C51.4605 4.99196 51.4568 4.94155 51.4538 4.89095C51.4531 4.87787 51.4524 4.86486 51.4517 4.85177C51.4492 4.79798 51.4476 4.744 51.4476 4.68961C51.4476 2.75513 53.0596 1.17234 55.03 1.17234C57.0003 1.17234 58.6124 2.75513 58.5526 4.68961C58.5526 6.03786 57.7765 7.26889 56.5226 7.85513C56.4671 7.88242 56.4187 7.91317 56.376 7.94677C55.9598 8.11385 55.5055 8.20682 55.03 8.20682C54.4784 8.20688 53.9551 8.08277 53.4873 7.86177ZM52.1042 12.369C53.179 11.8414 53.8357 10.8448 53.8357 9.73104V9.22987C54.2177 9.32736 54.6179 9.37928 55.0298 9.37928C55.4205 9.37928 55.8002 9.33161 56.1642 9.24368V9.73104C56.1642 10.2 56.3433 10.7276 56.5821 11.1379L46.7904 20.7518C47.3278 16.9414 49.3577 13.7172 52.1042 12.369ZM61.8364 32.8276H60.1049C60.702 31.3034 61.0005 29.3103 61.0005 26.9655C61.0005 26.6724 60.8214 26.4379 60.5228 26.3793C57.0599 25.6172 53.0595 25.6172 49.5368 26.3793C49.2383 26.4379 49.0592 26.6724 49.0592 26.9655C49.0592 29.3103 49.3577 31.3034 49.9548 32.8276H48.2233C47.268 30.8345 46.7306 28.1379 46.6709 25.0897C46.9097 25.031 47.0888 24.9724 47.3276 24.9138C52.5221 23.8001 57.1792 23.8001 62.3139 24.8552C62.6721 24.9138 63.0304 25.031 63.3886 25.0897C63.329 28.1379 62.7917 30.8345 61.8364 32.8276ZM68.1056 25.1482C63.8727 23.7891 60.1146 23.0365 56.408 22.8894C53.3238 22.7516 50.2862 23.0308 47.0292 23.7414C46.671 23.8586 46.253 23.9172 45.8948 24.0345C45.8852 24.0393 45.8758 24.0442 45.8663 24.0492C44.62 24.3561 43.3403 24.7224 42.0139 25.1482L40.7601 24.3275C42.4329 23.6158 44.314 23.0576 46.2089 22.6527C46.2236 22.6609 46.2383 22.6718 46.253 22.6862C46.3128 22.6275 46.3725 22.6275 46.4321 22.6275C46.4447 22.6152 46.4572 22.6059 46.4698 22.5983C46.517 22.5886 46.5641 22.5785 46.6113 22.569C46.7308 22.5103 46.8501 22.4517 46.9099 22.3931L57.7764 11.7828C57.8346 11.7257 57.8782 11.6616 57.909 11.594L63.0903 6.50688L63.9262 7.3276L50.0743 20.9276C49.8952 21.1034 49.8355 21.3379 49.9549 21.5724C50.0743 21.8069 50.3132 21.9242 50.552 21.9242C50.5598 21.9234 50.5677 21.9227 50.5755 21.9219C50.5876 21.9225 50.5996 21.9242 50.6117 21.9242C53.1995 21.6805 55.8714 21.6642 58.515 21.8997C60.0638 22.0438 61.6063 22.2721 63.1292 22.5823C63.3758 22.6342 63.6217 22.6881 63.8665 22.7449H63.8903C65.7345 23.1552 67.5462 23.6842 69.2998 24.3277L68.1056 25.1482Z" fill="#030305"/>
</svg>
