<svg width="110" height="92" viewBox="0 0 110 92" fill="none" xmlns="http://www.w3.org/2000/svg">
<path d="M35.9891 49.625V61H33.6453V51.4609H29.075V61H26.7313V49.625H35.9891ZM40.4653 54.1719V64.25H38.2153V52.5469H40.3013L40.4653 54.1719ZM45.8169 56.6797V56.8438C45.8169 57.4583 45.744 58.0286 45.5981 58.5547C45.4575 59.0807 45.2492 59.5391 44.9731 59.9297C44.6971 60.3151 44.3533 60.6172 43.9419 60.8359C43.5356 61.0495 43.0669 61.1562 42.5356 61.1562C42.02 61.1562 41.5721 61.0521 41.1919 60.8438C40.8117 60.6354 40.4914 60.3438 40.2309 59.9688C39.9757 59.5885 39.77 59.1484 39.6138 58.6484C39.4575 58.1484 39.3377 57.612 39.2544 57.0391V56.6094C39.3377 55.9948 39.4575 55.4323 39.6138 54.9219C39.77 54.4062 39.9757 53.9609 40.2309 53.5859C40.4914 53.2057 40.8091 52.9115 41.1841 52.7031C41.5643 52.4948 42.0096 52.3906 42.52 52.3906C43.0565 52.3906 43.5278 52.4922 43.9341 52.6953C44.3455 52.8984 44.6893 53.1901 44.9653 53.5703C45.2466 53.9505 45.4575 54.4036 45.5981 54.9297C45.744 55.4557 45.8169 56.0391 45.8169 56.6797ZM43.5591 56.8438V56.6797C43.5591 56.3203 43.5278 55.9896 43.4653 55.6875C43.408 55.3802 43.3143 55.112 43.1841 54.8828C43.0591 54.6536 42.8924 54.4766 42.6841 54.3516C42.4809 54.2214 42.2335 54.1562 41.9419 54.1562C41.6346 54.1562 41.3716 54.2057 41.1528 54.3047C40.9393 54.4036 40.7648 54.5469 40.6294 54.7344C40.494 54.9219 40.3924 55.1458 40.3247 55.4062C40.257 55.6667 40.2153 55.9609 40.1997 56.2891V57.375C40.2257 57.7604 40.2986 58.1068 40.4184 58.4141C40.5382 58.7161 40.7231 58.9557 40.9731 59.1328C41.2231 59.3099 41.5513 59.3984 41.9575 59.3984C42.2544 59.3984 42.5044 59.3333 42.7075 59.2031C42.9106 59.0677 43.0747 58.8828 43.1997 58.6484C43.3299 58.4141 43.421 58.1432 43.4731 57.8359C43.5304 57.5286 43.5591 57.1979 43.5591 56.8438ZM49.7775 57.8594L52.6134 52.5469H54.8634V61H52.6134V55.6797L49.7775 61H47.5275V52.5469H49.7775V57.8594ZM61.1287 57.4688H58.4803L58.4647 55.9922H60.6522C60.9439 55.9922 61.1808 55.9635 61.3631 55.9062C61.5454 55.8438 61.6782 55.7526 61.7616 55.6328C61.8501 55.5078 61.8944 55.3568 61.8944 55.1797C61.8944 55.0234 61.8657 54.8906 61.8084 54.7812C61.7564 54.6667 61.6756 54.5729 61.5662 54.5C61.4569 54.4271 61.3189 54.375 61.1522 54.3438C60.9907 54.3073 60.8006 54.2891 60.5819 54.2891H59.3162V61H57.0662V52.5469H60.5819C61.134 52.5469 61.6287 52.5964 62.0662 52.6953C62.5037 52.7891 62.8761 52.9323 63.1834 53.125C63.4959 53.3177 63.7329 53.5625 63.8944 53.8594C64.061 54.151 64.1444 54.4974 64.1444 54.8984C64.1444 55.1589 64.0845 55.4036 63.9647 55.6328C63.8501 55.862 63.6782 56.0651 63.4491 56.2422C63.2199 56.4193 62.936 56.5651 62.5975 56.6797C62.2642 56.7891 61.8787 56.8568 61.4412 56.8828L61.1287 57.4688ZM61.1287 61H57.9256L58.6991 59.2578H61.1287C61.4048 59.2578 61.6314 59.224 61.8084 59.1562C61.9855 59.0885 62.1157 58.9896 62.1991 58.8594C62.2876 58.724 62.3319 58.5625 62.3319 58.375C62.3319 58.1927 62.2928 58.0339 62.2147 57.8984C62.1366 57.763 62.009 57.6589 61.8319 57.5859C61.66 57.5078 61.4256 57.4688 61.1287 57.4688H59.0272L59.0428 55.9922H61.4334L61.9803 56.5859C62.5741 56.6224 63.0636 56.7344 63.4491 56.9219C63.8345 57.1094 64.1183 57.349 64.3006 57.6406C64.4881 57.9271 64.5819 58.2422 64.5819 58.5859C64.5819 58.987 64.5064 59.3385 64.3553 59.6406C64.2043 59.9427 63.9803 60.1953 63.6834 60.3984C63.3918 60.5964 63.0324 60.7474 62.6053 60.8516C62.1782 60.9505 61.686 61 61.1287 61ZM65.9253 56.8594V56.6953C65.9253 56.0755 66.0138 55.5052 66.1909 54.9844C66.368 54.4583 66.6258 54.0026 66.9644 53.6172C67.3029 53.2318 67.7196 52.9323 68.2144 52.7188C68.7092 52.5 69.2769 52.3906 69.9175 52.3906C70.5581 52.3906 71.1284 52.5 71.6284 52.7188C72.1284 52.9323 72.5477 53.2318 72.8862 53.6172C73.23 54.0026 73.4904 54.4583 73.6675 54.9844C73.8446 55.5052 73.9331 56.0755 73.9331 56.6953V56.8594C73.9331 57.474 73.8446 58.0443 73.6675 58.5703C73.4904 59.0911 73.23 59.5469 72.8862 59.9375C72.5477 60.3229 72.131 60.6224 71.6362 60.8359C71.1415 61.0495 70.5737 61.1562 69.9331 61.1562C69.2925 61.1562 68.7222 61.0495 68.2222 60.8359C67.7274 60.6224 67.3081 60.3229 66.9644 59.9375C66.6258 59.5469 66.368 59.0911 66.1909 58.5703C66.0138 58.0443 65.9253 57.474 65.9253 56.8594ZM68.1753 56.6953V56.8594C68.1753 57.2135 68.2066 57.5443 68.2691 57.8516C68.3316 58.1589 68.4305 58.4297 68.5659 58.6641C68.7066 58.8932 68.8888 59.0729 69.1128 59.2031C69.3368 59.3333 69.6102 59.3984 69.9331 59.3984C70.2456 59.3984 70.5138 59.3333 70.7378 59.2031C70.9618 59.0729 71.1415 58.8932 71.2769 58.6641C71.4123 58.4297 71.5112 58.1589 71.5737 57.8516C71.6415 57.5443 71.6753 57.2135 71.6753 56.8594V56.6953C71.6753 56.3516 71.6415 56.0286 71.5737 55.7266C71.5112 55.4193 71.4097 55.1484 71.2691 54.9141C71.1336 54.6745 70.954 54.487 70.73 54.3516C70.506 54.2161 70.2352 54.1484 69.9175 54.1484C69.5998 54.1484 69.329 54.2161 69.105 54.3516C68.8862 54.487 68.7066 54.6745 68.5659 54.9141C68.4305 55.1484 68.3316 55.4193 68.2691 55.7266C68.2066 56.0286 68.1753 56.3516 68.1753 56.6953ZM76.5969 52.5469H78.8469L78.7766 55.375C78.7557 56.2812 78.6516 57.0599 78.4641 57.7109C78.2766 58.362 78.0266 58.9089 77.7141 59.3516C77.4016 59.7943 77.0448 60.1484 76.6438 60.4141C76.2479 60.6745 75.8313 60.8698 75.3938 61H74.9719L74.9484 59.2656L75.1828 59.2422C75.4484 58.9661 75.6672 58.6979 75.8391 58.4375C76.0109 58.1719 76.1438 57.8932 76.2375 57.6016C76.3313 57.3099 76.399 56.9844 76.4406 56.625C76.4875 56.2656 76.5161 55.849 76.5266 55.375L76.5969 52.5469ZM77.2063 52.5469H82.8078V61H80.5656V54.3516H77.2063V52.5469ZM74.4563 59.2422H84.0188V63.5391H81.7688V61H76.7609V63.5391H74.4563V59.2422ZM31.7469 73.5469V74.7422H27.4734V73.5469H31.7469ZM27.6844 73.5469V82H26.2391V73.5469H27.6844ZM33.0281 73.5469V82H31.575V73.5469H33.0281ZM35.2856 77.8672V77.6875C35.2856 77.0781 35.3742 76.513 35.5513 75.9922C35.7283 75.4661 35.9835 75.0104 36.3169 74.625C36.6502 74.2344 37.0539 73.9323 37.5278 73.7188C38.0018 73.5 38.533 73.3906 39.1216 73.3906C39.7153 73.3906 40.2492 73.5 40.7231 73.7188C41.2023 73.9323 41.6085 74.2344 41.9419 74.625C42.2804 75.0104 42.5382 75.4661 42.7153 75.9922C42.8924 76.513 42.9809 77.0781 42.9809 77.6875V77.8672C42.9809 78.4766 42.8924 79.0417 42.7153 79.5625C42.5382 80.0833 42.2804 80.5391 41.9419 80.9297C41.6085 81.3151 41.2049 81.6172 40.7309 81.8359C40.2622 82.0495 39.7309 82.1562 39.1372 82.1562C38.5434 82.1562 38.0096 82.0495 37.5356 81.8359C37.0617 81.6172 36.6554 81.3151 36.3169 80.9297C35.9835 80.5391 35.7283 80.0833 35.5513 79.5625C35.3742 79.0417 35.2856 78.4766 35.2856 77.8672ZM36.7309 77.6875V77.8672C36.7309 78.2891 36.7804 78.6875 36.8794 79.0625C36.9783 79.4323 37.1268 79.7604 37.3247 80.0469C37.5278 80.3333 37.7804 80.5599 38.0825 80.7266C38.3846 80.888 38.7361 80.9688 39.1372 80.9688C39.533 80.9688 39.8794 80.888 40.1763 80.7266C40.4783 80.5599 40.7283 80.3333 40.9263 80.0469C41.1242 79.7604 41.2726 79.4323 41.3716 79.0625C41.4757 78.6875 41.5278 78.2891 41.5278 77.8672V77.6875C41.5278 77.2708 41.4757 76.8776 41.3716 76.5078C41.2726 76.1328 41.1216 75.8021 40.9184 75.5156C40.7205 75.224 40.4705 74.9948 40.1684 74.8281C39.8716 74.6615 39.5226 74.5781 39.1216 74.5781C38.7257 74.5781 38.3768 74.6615 38.0747 74.8281C37.7778 74.9948 37.5278 75.224 37.3247 75.5156C37.1268 75.8021 36.9783 76.1328 36.8794 76.5078C36.7804 76.8776 36.7309 77.2708 36.7309 77.6875ZM50.6369 73.5469V74.7422H46.5509V73.5469H50.6369ZM51.9103 73.5469V82H50.465V73.5469H51.9103ZM46.1994 73.5469H47.6525L47.4338 77.625C47.3973 78.2552 47.3374 78.8125 47.2541 79.2969C47.1759 79.776 47.0666 80.1875 46.9259 80.5312C46.7905 80.875 46.6186 81.1562 46.4103 81.375C46.2072 81.5885 45.9624 81.7474 45.6759 81.8516C45.3895 81.9505 45.0588 82 44.6838 82H44.2306V80.7266L44.5431 80.7031C44.7671 80.6875 44.9572 80.6354 45.1134 80.5469C45.2749 80.4583 45.4103 80.3281 45.5197 80.1562C45.6291 79.9792 45.7176 79.7526 45.7853 79.4766C45.8582 79.2005 45.9129 78.8724 45.9494 78.4922C45.991 78.112 46.0223 77.6693 46.0431 77.1641L46.1994 73.5469ZM60.2928 77.2109V78.3828H55.8241V77.2109H60.2928ZM56.1287 73.5469V82H54.6834V73.5469H56.1287ZM61.4647 73.5469V82H60.0116V73.5469H61.4647ZM65.3003 76.4531H67.8394C68.5217 76.4531 69.0972 76.5729 69.5659 76.8125C70.0347 77.0469 70.3889 77.3724 70.6284 77.7891C70.8732 78.2005 70.9956 78.6693 70.9956 79.1953C70.9956 79.5859 70.9279 79.9531 70.7925 80.2969C70.6571 80.6354 70.454 80.9323 70.1831 81.1875C69.9175 81.4427 69.5868 81.6432 69.1909 81.7891C68.8003 81.9297 68.3498 82 67.8394 82H64.2456V73.5469H65.6909V80.8125H67.8394C68.256 80.8125 68.5894 80.737 68.8394 80.5859C69.0894 80.4349 69.2691 80.2396 69.3784 80C69.4878 79.7604 69.5425 79.5104 69.5425 79.25C69.5425 78.9948 69.4878 78.7448 69.3784 78.5C69.2691 78.2552 69.0894 78.0521 68.8394 77.8906C68.5894 77.724 68.256 77.6406 67.8394 77.6406H65.3003V76.4531ZM74.0034 73.5469V82H72.5581V73.5469H74.0034ZM78.4172 79.7109L82.3156 73.5469H83.7688V82H82.3156V75.8359L78.4172 82H76.9797V73.5469H78.4172V79.7109ZM81.5266 70.4844H82.6984C82.6984 70.8906 82.6047 71.2526 82.4172 71.5703C82.2297 71.8828 81.9615 72.1276 81.6125 72.3047C81.2635 72.4818 80.8495 72.5703 80.3703 72.5703C79.6464 72.5703 79.0734 72.3776 78.6516 71.9922C78.2349 71.6016 78.0266 71.099 78.0266 70.4844H79.1984C79.1984 70.7917 79.287 71.0625 79.4641 71.2969C79.6411 71.5312 79.9432 71.6484 80.3703 71.6484C80.787 71.6484 81.0839 71.5312 81.2609 71.2969C81.438 71.0625 81.5266 70.7917 81.5266 70.4844Z" fill="#030305"/>
<path d="M52.8027 14.4683C50.1365 14.4683 47.9674 16.6374 47.9674 19.3035C47.9674 21.9697 50.1365 24.1388 52.8027 24.1388C55.4689 24.1388 57.6379 21.9697 57.6379 19.3035C57.6379 16.6374 55.4689 14.4683 52.8027 14.4683ZM52.8027 22.7582C50.8977 22.7582 49.348 21.2084 49.348 19.3035C49.348 17.3987 50.8978 15.8488 52.8027 15.8488C54.7075 15.8488 56.2574 17.3986 56.2574 19.3035C56.2574 21.2085 54.7076 22.7582 52.8027 22.7582Z" fill="#030305"/>
<path d="M52.8028 12.2995C48.9407 12.2995 45.7987 15.4415 45.7987 19.3036C45.7987 23.1656 48.9407 26.3076 52.8028 26.3076C56.6648 26.3076 59.8068 23.1656 59.8068 19.3036C59.8068 15.4415 56.6648 12.2995 52.8028 12.2995ZM52.8028 24.9271C49.7019 24.9271 47.1793 22.4044 47.1793 19.3036C47.1793 16.2027 49.702 13.6801 52.8028 13.6801C55.9035 13.6801 58.4263 16.2027 58.4263 19.3036C58.4263 22.4044 55.9036 24.9271 52.8028 24.9271Z" fill="#030305"/>
<path d="M71.6447 8.19518H70.1061C69.9475 7.69273 69.7454 7.20524 69.5021 6.73753L70.5904 5.64919C70.86 5.37959 70.86 4.94257 70.5904 4.67298L67.6621 1.74465C67.3925 1.47506 66.9555 1.47506 66.6859 1.74465L65.5973 2.83315C65.1291 2.58963 64.642 2.38761 64.1406 2.22907V0.690282C64.1406 0.309016 63.8316 0 63.4503 0H59.3086C58.9273 0 58.6183 0.309016 58.6183 0.690282V2.22892C58.1166 2.38753 57.6292 2.58955 57.1608 2.83315L56.0723 1.74465C55.8027 1.47506 55.3656 1.47506 55.0961 1.74465L52.3398 4.50094H50.7601C50.3788 4.50094 50.0698 4.80996 50.0698 5.19122V7.02753C49.7193 7.10522 49.3722 7.1978 49.0309 7.30487L48.1132 5.71553C48.0217 5.557 47.8709 5.44126 47.6941 5.39394C47.5173 5.34661 47.3288 5.37139 47.1702 5.46289L43.6324 7.50528C43.4739 7.59686 43.3581 7.74764 43.3108 7.92443C43.2634 8.1013 43.2882 8.28967 43.3797 8.44828L44.2993 10.0409C44.0357 10.283 43.7822 10.5366 43.54 10.8001L41.9474 9.88061C41.7888 9.78904 41.6005 9.76434 41.4236 9.81166C41.2468 9.85906 41.096 9.97472 41.0044 10.1333L38.9619 13.6711C38.7713 14.0013 38.8844 14.4234 39.2145 14.614L40.8038 15.5316C40.6969 15.873 40.6042 16.2202 40.5265 16.5707H38.6903C38.309 16.5707 38 16.8797 38 17.261V21.3461C38 21.7274 38.309 22.0364 38.6903 22.0364H40.5265C40.6042 22.3869 40.6969 22.734 40.8038 23.0754L39.2145 23.993C39.056 24.0845 38.9402 24.2353 38.8929 24.4121C38.8455 24.589 38.8704 24.7773 38.9619 24.936L41.0044 28.4738C41.1951 28.804 41.6173 28.917 41.9473 28.7265L43.54 27.807C43.782 28.0705 44.0357 28.3241 44.2992 28.5662L43.3797 30.1589C43.2882 30.3174 43.2633 30.5058 43.3107 30.6827C43.3581 30.8595 43.4738 31.0103 43.6323 31.1019L47.1702 33.1444C47.5003 33.335 47.9225 33.2219 48.1131 32.8918L49.0306 31.3024C49.3721 31.4095 49.7191 31.5022 50.0696 31.5798V33.416C50.0696 33.7973 50.3787 34.1063 50.7599 34.1063H54.8451C55.2264 34.1063 55.5354 33.7973 55.5354 33.416V31.5798C55.8859 31.5021 56.233 31.4094 56.5744 31.3024L57.4919 32.8918C57.6827 33.2219 58.1048 33.335 58.4349 33.1444L61.9727 31.1019C62.1312 31.0103 62.247 30.8595 62.2943 30.6827C62.3417 30.5058 62.3169 30.3174 62.2254 30.1589L61.3058 28.5662C61.5694 28.3241 61.823 28.0705 62.0651 27.807L63.6577 28.7265C63.9879 28.9171 64.4101 28.8039 64.6006 28.4738L66.6432 24.936C66.7347 24.7774 66.7595 24.589 66.7121 24.4121C66.6647 24.2353 66.549 24.0845 66.3905 23.993L64.8012 23.0754C64.9082 22.734 65.0008 22.3869 65.0785 22.0364H66.9151C67.2964 22.0364 67.6054 21.7274 67.6054 21.3461V20.2183C67.625 20.2025 67.6441 20.1859 67.6621 20.168L70.5904 17.2389C70.8599 16.9693 70.8599 16.5322 70.5903 16.2627L69.5022 15.1745C69.7453 14.7074 69.9472 14.2201 70.1061 13.7174H71.6447C72.026 13.7174 72.335 13.4083 72.335 13.0271V8.88538C72.335 8.50419 72.0259 8.19518 71.6447 8.19518ZM66.2248 20.6558H64.5116C64.1759 20.6558 63.8888 20.8974 63.8315 21.2282C63.7177 21.8848 63.5449 22.5322 63.3177 23.1527C63.2023 23.4677 63.3302 23.8201 63.6207 23.9878L65.1028 24.8435L63.7504 27.1857L62.2652 26.3283C61.9749 26.1608 61.6059 26.2259 61.3907 26.483C60.965 26.9918 60.4911 27.4657 59.9822 27.8916C59.725 28.1068 59.6597 28.4757 59.8274 28.7661L60.6849 30.2513L58.3426 31.6035L57.487 30.1216C57.3191 29.831 56.9667 29.7032 56.6518 29.8186C56.0313 30.0457 55.3838 30.2186 54.7274 30.3323C54.3966 30.3896 54.155 30.6767 54.155 31.0124V32.7256H51.4504V31.0124C51.4504 30.6767 51.2088 30.3896 50.8779 30.3323C50.2215 30.2186 49.574 30.0457 48.9535 29.8186C48.6385 29.7032 48.2861 29.8311 48.1184 30.1216L47.2627 31.6035L44.9205 30.2513L45.7779 28.7661C45.9456 28.4757 45.8803 28.1068 45.6232 27.8916C45.1142 27.4656 44.6404 26.9918 44.2146 26.483C43.9993 26.2259 43.6305 26.1606 43.3401 26.3283L41.8549 27.1857L40.5027 24.8435L41.9846 23.9879C42.2751 23.8201 42.403 23.4677 42.2876 23.1527C42.0605 22.5322 41.8876 21.8848 41.7739 21.2284C41.7166 20.8976 41.4295 20.6559 41.0938 20.6559H39.3806V17.9513H41.0938C41.4295 17.9513 41.7166 17.7097 41.7739 17.3788C41.8876 16.7224 42.0605 16.075 42.2876 15.4545C42.403 15.1395 42.2751 14.7871 41.9846 14.6193L40.5026 13.7637L41.8549 11.4214L43.3401 12.2789C43.6305 12.4465 43.9993 12.3812 44.2146 12.1241C44.6406 11.6152 45.1144 11.1413 45.6232 10.7155C45.8803 10.5003 45.9456 10.1314 45.7779 9.84104L44.9205 8.35586L47.2627 7.00352L48.1184 8.48548C48.2861 8.77601 48.6383 8.90387 48.9535 8.78859C49.5741 8.56141 50.2216 8.38853 50.878 8.27479C51.2088 8.21749 51.4504 7.93042 51.4504 7.59463V5.88143H54.155V7.59463C54.155 7.93042 54.3966 8.21749 54.7274 8.27479C55.3838 8.38853 56.0313 8.56141 56.6518 8.78859C56.9667 8.90394 57.3192 8.77609 57.487 8.48555L58.3426 7.0036L60.6849 8.35594L59.8274 9.84111C59.6597 10.1315 59.7251 10.5004 59.9822 10.7156C60.491 11.1415 60.9649 11.6154 61.3907 12.1242C61.6059 12.3814 61.9749 12.4465 62.2652 12.279L63.7505 11.4215L65.1028 13.7638L63.6207 14.6194C63.3302 14.7872 63.2023 15.1396 63.3177 15.4546C63.5449 16.075 63.7177 16.7225 63.8315 17.379C63.8888 17.7098 64.1759 17.9514 64.5116 17.9514H66.2248V20.6558ZM70.9544 12.3369H69.5846C69.2682 12.3369 68.9924 12.5519 68.9152 12.8587C68.7306 13.592 68.4406 14.2918 68.0529 14.9388C67.8902 15.2104 67.9331 15.5579 68.1569 15.7817L69.1262 16.7509L67.6054 18.2721V17.261C67.6054 16.8798 67.2964 16.5707 66.9151 16.5707H65.0788C65.0011 16.2202 64.9085 15.8731 64.8015 15.5317L66.3908 14.6141C66.5494 14.5225 66.6651 14.3717 66.7124 14.195C66.7598 14.0182 66.735 13.8297 66.6435 13.6712L64.6009 10.1333C64.4102 9.80315 63.9881 9.69017 63.658 9.88069L62.0654 10.8002C61.8233 10.5367 61.5697 10.283 61.3061 10.041L62.2257 8.44836C62.3172 8.28982 62.342 8.10137 62.2946 7.92451C62.2472 7.74772 62.1316 7.59693 61.973 7.50535L58.4352 5.46273C58.2766 5.37116 58.0883 5.34638 57.9113 5.39378C57.7345 5.44118 57.5837 5.55684 57.4922 5.71538L56.5746 7.30471C56.2332 7.19764 55.886 7.10507 55.5356 7.02737V5.19115C55.5356 4.80988 55.2266 4.50087 54.8453 4.50087H54.2923L55.5842 3.20889L56.5534 4.17804C56.777 4.40177 57.1239 4.44472 57.3955 4.28258C58.0463 3.89372 58.7466 3.6035 59.477 3.41989C59.7838 3.34273 59.999 3.06684 59.999 2.75039V1.38056H62.7601V2.75039C62.7601 3.06677 62.9752 3.34257 63.2819 3.41981C64.012 3.6035 64.7121 3.8938 65.3628 4.28258C65.6343 4.4448 65.9813 4.40177 66.2048 4.17804L67.174 3.20889L69.1261 5.16101L68.1569 6.13016C67.9332 6.35389 67.8902 6.70118 68.0527 6.97269C68.4409 7.62132 68.731 8.32142 68.9151 9.05366C68.9923 9.36053 69.2681 9.57566 69.5846 9.57566H70.9544V12.3369Z" fill="#030305"/>
</svg>
