<svg width="110" height="92" viewBox="0 0 110 92" fill="none" xmlns="http://www.w3.org/2000/svg">
<path d="M24.0247 59.1719V61H15.8294V59.1719H24.0247ZM16.5247 59.1719V63.7891H14.3216L14.1966 59.1719H16.5247ZM25.7122 59.1719L25.5091 63.7969H23.3606V59.1719H25.7122ZM22.7356 49.625V51.4609H17.2591V49.625H22.7356ZM24.4075 49.625V61H22.0716V49.625H24.4075ZM16.97 49.625H19.3138L19.0091 54.2578C18.9622 55.0234 18.8789 55.7005 18.7591 56.2891C18.6445 56.8724 18.5039 57.3854 18.3372 57.8281C18.1757 58.2708 17.996 58.6589 17.7981 58.9922C17.6002 59.3203 17.3919 59.6068 17.1731 59.8516C16.9544 60.0911 16.733 60.3047 16.5091 60.4922C16.2851 60.6745 16.0664 60.8438 15.8528 61H14.5091V59.1719H15.0325C15.1835 59.0469 15.3424 58.875 15.5091 58.6562C15.6809 58.4375 15.8424 58.1432 15.9934 57.7734C16.1497 57.3984 16.2851 56.9245 16.3997 56.3516C16.5195 55.7786 16.608 55.0807 16.6653 54.2578L16.97 49.625ZM31.3134 57.4688H28.665L28.6494 55.9922H30.8369C31.1285 55.9922 31.3655 55.9635 31.5478 55.9062C31.7301 55.8438 31.8629 55.7526 31.9463 55.6328C32.0348 55.5078 32.0791 55.3568 32.0791 55.1797C32.0791 55.0234 32.0504 54.8906 31.9931 54.7812C31.941 54.6667 31.8603 54.5729 31.7509 54.5C31.6416 54.4271 31.5035 54.375 31.3369 54.3438C31.1754 54.3073 30.9853 54.2891 30.7666 54.2891H29.5009V61H27.2509V52.5469H30.7666C31.3186 52.5469 31.8134 52.5964 32.2509 52.6953C32.6884 52.7891 33.0608 52.9323 33.3681 53.125C33.6806 53.3177 33.9176 53.5625 34.0791 53.8594C34.2457 54.151 34.3291 54.4974 34.3291 54.8984C34.3291 55.1589 34.2692 55.4036 34.1494 55.6328C34.0348 55.862 33.8629 56.0651 33.6338 56.2422C33.4046 56.4193 33.1207 56.5651 32.7822 56.6797C32.4489 56.7891 32.0634 56.8568 31.6259 56.8828L31.3134 57.4688ZM31.3134 61H28.1103L28.8838 59.2578H31.3134C31.5895 59.2578 31.816 59.224 31.9931 59.1562C32.1702 59.0885 32.3004 58.9896 32.3838 58.8594C32.4723 58.724 32.5166 58.5625 32.5166 58.375C32.5166 58.1927 32.4775 58.0339 32.3994 57.8984C32.3213 57.763 32.1936 57.6589 32.0166 57.5859C31.8447 57.5078 31.6103 57.4688 31.3134 57.4688H29.2119L29.2275 55.9922H31.6181L32.165 56.5859C32.7588 56.6224 33.2483 56.7344 33.6338 56.9219C34.0192 57.1094 34.303 57.349 34.4853 57.6406C34.6728 57.9271 34.7666 58.2422 34.7666 58.5859C34.7666 58.987 34.691 59.3385 34.54 59.6406C34.389 59.9427 34.165 60.1953 33.8681 60.3984C33.5765 60.5964 33.2171 60.7474 32.79 60.8516C32.3629 60.9505 31.8707 61 31.3134 61ZM38.7116 57.8594L41.5475 52.5469H43.7975V61H41.5475V55.6797L38.7116 61H36.4616V52.5469H38.7116V57.8594ZM51.6019 52.5469V54.3125H48.0863V61H45.8363V52.5469H51.6019ZM57.4531 59.0938V55.3281C57.4531 55.0573 57.4089 54.8255 57.3203 54.6328C57.2318 54.4349 57.0938 54.2812 56.9062 54.1719C56.724 54.0625 56.487 54.0078 56.1953 54.0078C55.9453 54.0078 55.7292 54.0521 55.5469 54.1406C55.3646 54.224 55.224 54.3464 55.125 54.5078C55.026 54.6641 54.9766 54.849 54.9766 55.0625H52.7266C52.7266 54.7031 52.8099 54.362 52.9766 54.0391C53.1432 53.7161 53.3854 53.4323 53.7031 53.1875C54.0208 52.9375 54.3984 52.7422 54.8359 52.6016C55.2786 52.4609 55.7734 52.3906 56.3203 52.3906C56.9766 52.3906 57.5599 52.5 58.0703 52.7188C58.5807 52.9375 58.9818 53.2656 59.2734 53.7031C59.5703 54.1406 59.7188 54.6875 59.7188 55.3438V58.9609C59.7188 59.4245 59.7474 59.8047 59.8047 60.1016C59.862 60.3932 59.9453 60.6484 60.0547 60.8672V61H57.7812C57.6719 60.7708 57.5885 60.4844 57.5312 60.1406C57.4792 59.7917 57.4531 59.4427 57.4531 59.0938ZM57.75 55.8516L57.7656 57.125H56.5078C56.2109 57.125 55.9531 57.1589 55.7344 57.2266C55.5156 57.2943 55.3359 57.3906 55.1953 57.5156C55.0547 57.6354 54.9505 57.776 54.8828 57.9375C54.8203 58.099 54.7891 58.276 54.7891 58.4688C54.7891 58.6615 54.8333 58.8359 54.9219 58.9922C55.0104 59.1432 55.138 59.263 55.3047 59.3516C55.4714 59.4349 55.6667 59.4766 55.8906 59.4766C56.2292 59.4766 56.5234 59.4089 56.7734 59.2734C57.0234 59.138 57.2161 58.9714 57.3516 58.7734C57.4922 58.5755 57.5651 58.388 57.5703 58.2109L58.1641 59.1641C58.0807 59.3776 57.9661 59.599 57.8203 59.8281C57.6797 60.0573 57.5 60.2734 57.2812 60.4766C57.0625 60.6745 56.7995 60.8385 56.4922 60.9688C56.1849 61.0938 55.8203 61.1562 55.3984 61.1562C54.862 61.1562 54.375 61.0495 53.9375 60.8359C53.5052 60.6172 53.1615 60.3177 52.9062 59.9375C52.6562 59.5521 52.5312 59.1146 52.5312 58.625C52.5312 58.1823 52.6146 57.7891 52.7812 57.4453C52.9479 57.1016 53.1927 56.8125 53.5156 56.5781C53.8438 56.3385 54.2526 56.1589 54.7422 56.0391C55.2318 55.9141 55.7995 55.8516 56.4453 55.8516H57.75ZM65.9528 52.5469V61H63.695V52.5469H65.9528ZM68.6716 52.5469V54.2891H61.0153V52.5469H68.6716ZM73.4837 61.1562C72.8275 61.1562 72.239 61.0521 71.7181 60.8438C71.1973 60.6302 70.7546 60.3359 70.39 59.9609C70.0306 59.5859 69.7546 59.151 69.5619 58.6562C69.3692 58.1562 69.2728 57.625 69.2728 57.0625V56.75C69.2728 56.1094 69.364 55.5234 69.5462 54.9922C69.7285 54.4609 69.989 54 70.3275 53.6094C70.6712 53.2188 71.0879 52.9193 71.5775 52.7109C72.0671 52.4974 72.6192 52.3906 73.2337 52.3906C73.8327 52.3906 74.364 52.4896 74.8275 52.6875C75.291 52.8854 75.6791 53.1667 75.9916 53.5312C76.3093 53.8958 76.5489 54.3333 76.7103 54.8438C76.8718 55.349 76.9525 55.9115 76.9525 56.5312V57.4688H70.2337V55.9688H74.7416V55.7969C74.7416 55.4844 74.6843 55.2057 74.5697 54.9609C74.4603 54.7109 74.2936 54.513 74.0697 54.3672C73.8457 54.2214 73.5593 54.1484 73.2103 54.1484C72.9134 54.1484 72.6582 54.2135 72.4447 54.3438C72.2311 54.474 72.0567 54.6562 71.9212 54.8906C71.791 55.125 71.6921 55.401 71.6244 55.7188C71.5619 56.0312 71.5306 56.375 71.5306 56.75V57.0625C71.5306 57.401 71.5775 57.7135 71.6712 58C71.7702 58.2865 71.9082 58.5339 72.0853 58.7422C72.2676 58.9505 72.4864 59.112 72.7416 59.2266C73.002 59.3411 73.2962 59.3984 73.6244 59.3984C74.0306 59.3984 74.4082 59.3203 74.7572 59.1641C75.1114 59.0026 75.416 58.7604 75.6712 58.4375L76.765 59.625C76.5879 59.8802 76.3457 60.125 76.0384 60.3594C75.7364 60.5938 75.3718 60.7865 74.9447 60.9375C74.5176 61.0833 74.0306 61.1562 73.4837 61.1562ZM84.2413 52.5469V54.3125H80.085V52.5469H84.2413ZM85.8897 52.5469V61H83.6397V52.5469H85.8897ZM79.5225 52.5469H81.7334L81.5069 56.8125C81.4756 57.4219 81.4105 57.9583 81.3116 58.4219C81.2126 58.8854 81.0798 59.2812 80.9131 59.6094C80.7517 59.9375 80.5564 60.2057 80.3272 60.4141C80.1032 60.6172 79.8402 60.7656 79.5381 60.8594C79.2413 60.9531 78.9131 61 78.5538 61H77.8663L77.8428 59.2266L78.1319 59.1953C78.2985 59.1797 78.4444 59.1328 78.5694 59.0547C78.6996 58.9714 78.809 58.8542 78.8975 58.7031C78.9913 58.5469 79.0694 58.3516 79.1319 58.1172C79.1944 57.8776 79.2439 57.5964 79.2803 57.2734C79.322 56.9505 79.3506 56.5781 79.3663 56.1562L79.5225 52.5469ZM89.5066 55.0547H91.9597C92.7305 55.0547 93.3868 55.1823 93.9284 55.4375C94.4753 55.6875 94.892 56.0365 95.1784 56.4844C95.4701 56.9323 95.6159 57.4505 95.6159 58.0391C95.6159 58.4661 95.5326 58.862 95.3659 59.2266C95.2045 59.5859 94.9675 59.8984 94.655 60.1641C94.3425 60.4297 93.9597 60.6354 93.5066 60.7812C93.0534 60.9271 92.5378 61 91.9597 61H88.1003V52.5469H90.3581V59.25H91.9597C92.2982 59.25 92.5691 59.1953 92.7722 59.0859C92.9805 58.9714 93.1316 58.8229 93.2253 58.6406C93.3243 58.4583 93.3737 58.2604 93.3737 58.0469C93.3737 57.8229 93.3243 57.6198 93.2253 57.4375C93.1316 57.25 92.9805 57.099 92.7722 56.9844C92.5691 56.8698 92.2982 56.8125 91.9597 56.8125H89.5066V55.0547ZM30.5284 76.5859L29.3722 76.2891L29.9425 70.625H35.7784V71.9609H31.1691L30.8253 75.0547C31.0336 74.9349 31.2967 74.8229 31.6144 74.7188C31.9373 74.6146 32.3071 74.5625 32.7237 74.5625C33.2498 74.5625 33.7211 74.6536 34.1378 74.8359C34.5545 75.013 34.9086 75.2682 35.2003 75.6016C35.4972 75.9349 35.7237 76.3359 35.88 76.8047C36.0362 77.2734 36.1144 77.7969 36.1144 78.375C36.1144 78.9219 36.0389 79.4245 35.8878 79.8828C35.742 80.3411 35.5206 80.7422 35.2237 81.0859C34.9269 81.4245 34.5519 81.6875 34.0987 81.875C33.6508 82.0625 33.1222 82.1562 32.5128 82.1562C32.0545 82.1562 31.6196 82.0938 31.2081 81.9688C30.8019 81.8385 30.4373 81.6432 30.1144 81.3828C29.7967 81.1172 29.5362 80.7891 29.3331 80.3984C29.1352 80.0026 29.0102 79.5391 28.9581 79.0078H30.3331C30.3956 79.4349 30.5206 79.7943 30.7081 80.0859C30.8956 80.3776 31.1404 80.599 31.4425 80.75C31.7498 80.8958 32.1066 80.9688 32.5128 80.9688C32.8566 80.9688 33.1612 80.9089 33.4269 80.7891C33.6925 80.6693 33.9165 80.4974 34.0987 80.2734C34.281 80.0495 34.4191 79.7786 34.5128 79.4609C34.6118 79.1432 34.6612 78.7865 34.6612 78.3906C34.6612 78.0312 34.6118 77.6979 34.5128 77.3906C34.4139 77.0833 34.2654 76.8151 34.0675 76.5859C33.8748 76.3568 33.6378 76.1797 33.3566 76.0547C33.0753 75.9245 32.7524 75.8594 32.3878 75.8594C31.9034 75.8594 31.5362 75.9245 31.2862 76.0547C31.0415 76.1849 30.7889 76.362 30.5284 76.5859ZM38.2 81.2344C38.2 80.9896 38.2755 80.7839 38.4266 80.6172C38.5828 80.4453 38.8068 80.3594 39.0984 80.3594C39.3901 80.3594 39.6115 80.4453 39.7625 80.6172C39.9187 80.7839 39.9969 80.9896 39.9969 81.2344C39.9969 81.474 39.9187 81.6771 39.7625 81.8438C39.6115 82.0104 39.3901 82.0938 39.0984 82.0938C38.8068 82.0938 38.5828 82.0104 38.4266 81.8438C38.2755 81.6771 38.2 81.474 38.2 81.2344ZM50.0122 80.8125V82H42.5669V80.9609L46.2934 76.8125C46.7518 76.3021 47.1059 75.8698 47.3559 75.5156C47.6111 75.1562 47.7882 74.8359 47.8872 74.5547C47.9914 74.2682 48.0434 73.9766 48.0434 73.6797C48.0434 73.3047 47.9653 72.9661 47.8091 72.6641C47.658 72.3568 47.4341 72.112 47.1372 71.9297C46.8403 71.7474 46.4809 71.6562 46.0591 71.6562C45.5539 71.6562 45.132 71.7552 44.7934 71.9531C44.4601 72.1458 44.2101 72.4167 44.0434 72.7656C43.8768 73.1146 43.7934 73.5156 43.7934 73.9688H42.3481C42.3481 73.3281 42.4888 72.7422 42.77 72.2109C43.0513 71.6797 43.4679 71.2578 44.02 70.9453C44.5721 70.6276 45.2518 70.4688 46.0591 70.4688C46.7778 70.4688 47.3924 70.5964 47.9028 70.8516C48.4132 71.1016 48.8039 71.4557 49.0747 71.9141C49.3507 72.3672 49.4888 72.8984 49.4888 73.5078C49.4888 73.8411 49.4315 74.1797 49.3169 74.5234C49.2075 74.862 49.0539 75.2005 48.8559 75.5391C48.6632 75.8776 48.4367 76.2109 48.1763 76.5391C47.921 76.8672 47.6476 77.1901 47.3559 77.5078L44.3091 80.8125H50.0122ZM61.9725 73.5469V74.7422H57.8866V73.5469H61.9725ZM63.2459 73.5469V82H61.8006V73.5469H63.2459ZM57.535 73.5469H58.9881L58.7694 77.625C58.7329 78.2552 58.673 78.8125 58.5897 79.2969C58.5116 79.776 58.4022 80.1875 58.2616 80.5312C58.1261 80.875 57.9543 81.1562 57.7459 81.375C57.5428 81.5885 57.298 81.7474 57.0116 81.8516C56.7251 81.9505 56.3944 82 56.0194 82H55.5662V80.7266L55.8787 80.7031C56.1027 80.6875 56.2928 80.6354 56.4491 80.5469C56.6105 80.4583 56.7459 80.3281 56.8553 80.1562C56.9647 79.9792 57.0532 79.7526 57.1209 79.4766C57.1939 79.2005 57.2485 78.8724 57.285 78.4922C57.3267 78.112 57.3579 77.6693 57.3787 77.1641L57.535 73.5469ZM65.9175 81.2344C65.9175 80.9896 65.993 80.7839 66.1441 80.6172C66.3003 80.4453 66.5243 80.3594 66.8159 80.3594C67.1076 80.3594 67.329 80.4453 67.48 80.6172C67.6362 80.7839 67.7144 80.9896 67.7144 81.2344C67.7144 81.474 67.6362 81.6771 67.48 81.8438C67.329 82.0104 67.1076 82.0938 66.8159 82.0938C66.5243 82.0938 66.3003 82.0104 66.1441 81.8438C65.993 81.6771 65.9175 81.474 65.9175 81.2344ZM73.8156 80.9688C74.1594 80.9688 74.4771 80.8984 74.7687 80.7578C75.0604 80.6172 75.3 80.4245 75.4875 80.1797C75.675 79.9297 75.7818 79.6458 75.8078 79.3281H77.1828C77.1568 79.8281 76.9875 80.2943 76.675 80.7266C76.3677 81.1536 75.9641 81.5 75.4641 81.7656C74.9641 82.026 74.4146 82.1562 73.8156 82.1562C73.1802 82.1562 72.6255 82.0443 72.1516 81.8203C71.6828 81.5964 71.2922 81.2891 70.9797 80.8984C70.6724 80.5078 70.4406 80.0599 70.2844 79.5547C70.1333 79.0443 70.0578 78.5052 70.0578 77.9375V77.6094C70.0578 77.0417 70.1333 76.5052 70.2844 76C70.4406 75.4896 70.6724 75.0391 70.9797 74.6484C71.2922 74.2578 71.6828 73.9505 72.1516 73.7266C72.6255 73.5026 73.1802 73.3906 73.8156 73.3906C74.4771 73.3906 75.0552 73.526 75.55 73.7969C76.0448 74.0625 76.4328 74.4271 76.7141 74.8906C77.0005 75.349 77.1568 75.8698 77.1828 76.4531H75.8078C75.7818 76.1042 75.6828 75.7891 75.5109 75.5078C75.3443 75.2266 75.1151 75.0026 74.8234 74.8359C74.537 74.6641 74.201 74.5781 73.8156 74.5781C73.3729 74.5781 73.0005 74.6667 72.6984 74.8438C72.4016 75.0156 72.1646 75.25 71.9875 75.5469C71.8156 75.8385 71.6906 76.1641 71.6125 76.5234C71.5396 76.8776 71.5031 77.2396 71.5031 77.6094V77.9375C71.5031 78.3073 71.5396 78.6719 71.6125 79.0312C71.6854 79.3906 71.8078 79.7161 71.9797 80.0078C72.1568 80.2995 72.3937 80.5339 72.6906 80.7109C72.9927 80.8828 73.3677 80.9688 73.8156 80.9688ZM79.1513 81.2344C79.1513 80.9896 79.2268 80.7839 79.3778 80.6172C79.5341 80.4453 79.758 80.3594 80.0497 80.3594C80.3414 80.3594 80.5627 80.4453 80.7138 80.6172C80.87 80.7839 80.9481 80.9896 80.9481 81.2344C80.9481 81.474 80.87 81.6771 80.7138 81.8438C80.5627 82.0104 80.3414 82.0938 80.0497 82.0938C79.758 82.0938 79.5341 82.0104 79.3778 81.8438C79.2268 81.6771 79.1513 81.474 79.1513 81.2344Z" fill="#030305"/>
<path d="M52 0C42.65 0 35 7.65 35 17C35 26.35 42.65 34 52 34C61.35 34 69 26.35 69 17C69 7.65 61.35 0 52 0ZM52 32.8666C43.2734 32.8666 36.1334 25.7266 36.1334 17C36.1334 8.27336 43.2734 1.13336 52 1.13336C60.7266 1.13336 67.8666 8.27336 67.8666 17C67.8666 25.7266 60.7266 32.8666 52 32.8666Z" fill="#030305"/>
<path d="M54.2667 20.9667C54.2667 19.72 53.2467 18.7 52 18.7C50.7534 18.7 49.7334 19.72 49.7334 20.9667C49.7334 22.2133 50.7534 23.2333 52 23.2333C53.2467 23.2334 54.2667 22.2134 54.2667 20.9667ZM52 22.1C51.3767 22.1 50.8667 21.59 50.8667 20.9667C50.8667 20.3433 51.3767 19.8333 52 19.8333C52.6234 19.8333 53.1334 20.3433 53.1334 20.9667C53.1334 21.59 52.6234 22.1 52 22.1Z" fill="#030305"/>
<path d="M53.7 17C53.7 18.2467 54.72 19.2667 55.9666 19.2667C57.2132 19.2667 58.2332 18.2467 58.2332 17C58.2332 15.7534 57.2132 14.7334 55.9666 14.7334C54.72 14.7334 53.7 15.7534 53.7 17ZM57.1 17C57.1 17.6234 56.59 18.1334 55.9666 18.1334C55.3432 18.1334 54.8332 17.6234 54.8332 17C54.8332 16.3767 55.3432 15.8667 55.9666 15.8667C56.59 15.8667 57.1 16.3767 57.1 17Z" fill="#030305"/>
<path d="M49.7334 13.0334C49.7334 14.28 50.7534 15.3 52 15.3C53.2467 15.3 54.2667 14.28 54.2667 13.0334C54.2667 11.7867 53.2467 10.7667 52 10.7667C50.7534 10.7667 49.7334 11.7867 49.7334 13.0334ZM52 11.9C52.6234 11.9 53.1334 12.41 53.1334 13.0334C53.1334 13.6567 52.6234 14.1667 52 14.1667C51.3767 14.1667 50.8667 13.6567 50.8667 13.0334C50.8667 12.41 51.3767 11.9 52 11.9Z" fill="#030305"/>
<path d="M48.0334 14.7334C46.7867 14.7334 45.7667 15.7534 45.7667 17C45.7667 18.2467 46.7867 19.2667 48.0334 19.2667C49.28 19.2667 50.3 18.2467 50.3 17C50.3 15.7534 49.28 14.7334 48.0334 14.7334ZM48.0334 18.1334C47.41 18.1334 46.9 17.6234 46.9 17C46.9 16.3767 47.41 15.8667 48.0334 15.8667C48.6567 15.8667 49.1667 16.3767 49.1667 17C49.1667 17.6234 48.6567 18.1334 48.0334 18.1334Z" fill="#030305"/>
<path d="M37.8334 14.8466C39.4201 15.5266 41.1201 15.8666 42.8201 15.8666H44.2367C44.5201 15.8666 44.7467 15.6966 44.7467 15.47C45.3701 12.6933 47.5801 10.4833 50.3567 9.85998C50.6401 9.80333 50.8101 9.57662 50.8101 9.29333V7.87669C50.8101 6.12004 50.4701 4.47668 49.7901 2.89004C49.6767 2.66339 49.4501 2.49339 49.1667 2.55004C43.3301 3.68333 38.6267 8.38662 37.4934 14.2233C37.4367 14.5066 37.6067 14.7333 37.8334 14.8466ZM48.9967 3.73997C49.4501 5.04333 49.7334 6.40333 49.7334 7.81997V8.78333C46.8434 9.57669 44.5767 11.8433 43.7834 14.7333H42.8201C41.4034 14.7333 40.0434 14.5067 38.7401 13.9967C39.8734 8.95333 43.9534 4.87333 48.9967 3.73997Z" fill="#030305"/>
<path d="M53.5866 9.8034C56.3632 10.4268 58.5732 12.6368 59.1966 15.4134C59.2532 15.6967 59.4799 15.8667 59.7632 15.8667H61.1799C62.8799 15.8667 64.5799 15.5267 66.1099 14.7901C66.3365 14.6767 66.5065 14.4501 66.4499 14.1667C65.3165 8.33011 60.6132 3.62675 54.7765 2.4934C54.4932 2.43675 54.2665 2.60675 54.1532 2.8334C53.4732 4.42004 53.1332 6.12004 53.1332 7.82004V9.23668C53.1333 9.52004 53.3033 9.74668 53.5866 9.8034ZM54.3233 7.87668C54.3233 6.46004 54.55 5.10004 55.06 3.79669C60.1033 4.93004 64.1266 8.95333 65.2599 13.9967C63.9566 14.45 62.5966 14.7333 61.1799 14.7333H60.2166C59.4232 11.8433 57.1566 9.57668 54.3232 8.83997V7.87668H54.3233Z" fill="#030305"/>
<path d="M50.47 24.1967C47.6933 23.5733 45.4833 21.3633 44.86 18.5867C44.8033 18.3033 44.5766 18.1333 44.2933 18.1333H42.8767C41.12 18.1333 39.4767 18.4733 37.89 19.1533C37.6634 19.2667 37.4934 19.4933 37.55 19.7767C38.6834 25.6133 43.3867 30.3167 49.2234 31.45H49.3367C49.5634 31.45 49.7334 31.3367 49.9034 31.1667C50.5834 29.58 50.9234 27.88 50.9234 26.18V24.7634C50.9233 24.48 50.7533 24.2534 50.47 24.1967ZM49.6766 26.1234C49.6766 27.54 49.45 28.9 48.94 30.2034C43.8966 29.07 39.8733 25.0467 38.74 20.0034C40.0433 19.55 41.4033 19.2667 42.7633 19.21H43.7267C44.52 22.1 46.7867 24.3667 49.6767 25.16V26.1234H49.6766Z" fill="#030305"/>
<path d="M66.1666 19.0967C64.58 18.4167 62.88 18.0767 61.18 18.0767H59.7633C59.48 18.0767 59.2533 18.2467 59.1967 18.53C58.5733 21.3067 56.3633 23.5167 53.5867 24.14C53.3033 24.1967 53.1333 24.4234 53.1333 24.7067V26.1233C53.1333 27.8799 53.4733 29.5233 54.1533 31.11C54.2099 31.3366 54.4367 31.45 54.6633 31.45C54.7199 31.45 54.7767 31.45 54.8333 31.3933C60.67 30.2599 65.3733 25.5567 66.5067 19.7199C66.5633 19.4367 66.3933 19.21 66.1666 19.0967ZM55.0033 30.26C54.5499 28.9567 54.2667 27.5967 54.2667 26.18V25.2167C57.1567 24.4233 59.4233 22.1567 60.16 19.3233H61.1234C62.54 19.3233 63.9 19.5499 65.2034 20.0599C64.07 25.1034 60.0466 29.1267 55.0033 30.26Z" fill="#030305"/>
</svg>
